<svg xmlns="http://www.w3.org/2000/svg" viewBox="0 0 100 100" width="1024" height="1024">
  <defs>
    <linearGradient id="primary" x1="0%" y1="100%" x2="100%" y2="0%">
      <stop offset="0%" stop-color="#008a60" />
      <stop offset="100%" stop-color="#00e5a0" />
    </linearGradient>
    <linearGradient id="secondary" x1="0%" y1="100%" x2="100%" y2="0%">
      <stop offset="0%" stop-color="#a0a5b5" />
      <stop offset="100%" stop-color="#ffffff" />
    </linearGradient>
  </defs>

  <!-- C (Blue) -->
  <path d="M 68,22 A 34,34 0 1,0 68,78" fill="none" stroke="#1a1a1a" stroke-width="15" stroke-linecap="round" />
  <path d="M 68,22 A 34,34 0 1,0 68,78" fill="none" stroke="url(#secondary)" stroke-width="14" stroke-linecap="round" />

  <!-- R (Green) -->
  <!-- Stem -->
  <path d="M 38,20 L 38,80" fill="none" stroke="#1a1a1a" stroke-width="15" stroke-linecap="round" />
  <path d="M 38,20 L 38,80" fill="none" stroke="url(#primary)" stroke-width="14" stroke-linecap="round" />

  <!-- Loop -->
  <path d="M 38,30 H 66 C 81,30 81,55 66,55 H 38" fill="none" stroke="#1a1a1a" stroke-width="15" stroke-linecap="round" stroke-linejoin="round"/>
  <path d="M 38,30 H 66 C 81,30 81,55 66,55 H 38" fill="none" stroke="url(#primary)" stroke-width="14" stroke-linecap="round" stroke-linejoin="round"/>

  <!-- Leg -->
  <path d="M 56,55 L 81,80" fill="none" stroke="#1a1a1a" stroke-width="15" stroke-linecap="round" />
  <path d="M 56,55 L 81,80" fill="none" stroke="url(#primary)" stroke-width="14" stroke-linecap="round" />

</svg>
